P3
20 20
15
0  0  0 0  0  0 0  0  0 0  0  0 0  0  0 0  0  0 0  0  0 0  0  0 0  0  0 0  0  0 0  0  0 0  0  0 0  0  0 0  0  0 0  0  0 0  0  0 0  0  0 0  0  0 0  0  0 0  0  0 
0  0  0 0  0  0 0  0  0 0  0  0 0  0  0 0  0  0 15 0  0 15 0  0 15 0  0 15 0  0 15 0  0 15 0  0 15 0  0 15 0  0 15 0  0 0  0  0 0  0  0 0  0  0 0  0  0 0  0  0 
0  0  0 0  0  0 0  0  0 0  0  0 0  0  0 15 0  0 15 0  0 15 0  0 15 0  0 15 0  0 15 0  0 15 0  0 15 0  0 15 0  0 15 0  0 15 0  0 0  0  0 0  0  0 0  0  0 0  0  0 
0  0  0 0  0  0 0  0  0 15 0  0 15 0  0 15 0  0 15 0  0 15 0  0 15 0  0 15 0  0 15 0  0 15 0  0 15 0  0 15 0  0 15 0  0 15 0  0 15 0  0 15 0  0 0  0  0 0  0  0 
0  0  0 0  0  0 0  0  0 15 0  0 15 0  0 15 0  0 15 0  0 15 0  0 15 0  0 15 0  0 15 0  0 15 0  0 15 0  0 15 0  0 15 0  0 15 0  0 15 0  0 15 0  0 0  0  0 0  0  0 
0  0  0 0  0  0 15 0  0 15 0  0 15 0  0 15 0  0 15 0  0 15 0  0 15 0  0 15 0  0 15 0  0 15 0  0 15 0  0 15 0  0 15 0  0 15 0  0 15 0  0 15 0  0 15 0  0 0  0  0 
0  0  0 15 0  0 15 0  0 15 0  0 15 0  0 15 0  0 15 0  0 15 0  0 15 0  0 15 0  0 15 0  0 15 0  0 15 0  0 15 0  0 15 0  0 15 0  0 15 0  0 15 0  0 15 0  0 15 0  0 
0  0  0 15 0  0 15 0  0 15 0  0 15 0  0 15 0  0 15 0  0 15 0  0 15 0  0 15 0  0 15 0  0 15 0  0 15 0  0 15 0  0 15 0  0 15 0  0 15 0  0 15 0  0 15 0  0 15 0  0 
0  0  0 15 0  0 15 0  0 15 0  0 15 0  0 15 0  0 15 0  0 15 0  0 15 0  0 15 0  0 15 0  0 15 0  0 15 0  0 15 0  0 15 0  0 15 0  0 15 0  0 15 0  0 15 0  0 15 0  0 
0  0  0 15 0  0 15 0  0 15 0  0 15 0  0 15 0  0 15 0  0 15 0  0 15 0  0 15 0  0 15 0  0 15 0  0 15 0  0 15 0  0 15 0  0 15 0  0 15 0  0 15 0  0 15 0  0 15 0  0 
0  0  0 15 0  0 15 0  0 15 0  0 15 0  0 15 0  0 15 0  0 15 0  0 15 0  0 15 0  0 15 0  0 15 0  0 15 0  0 15 0  0 15 0  0 15 0  0 15 0  0 15 0  0 15 0  0 15 0  0 
0  0  0 15 0  0 15 0  0 15 0  0 15 0  0 15 0  0 15 0  0 15 0  0 15 0  0 15 0  0 15 0  0 15 0  0 15 0  0 15 0  0 15 0  0 15 0  0 15 0  0 15 0  0 15 0  0 15 0  0 
0  0  0 15 0  0 15 0  0 15 0  0 15 0  0 15 0  0 15 0  0 15 0  0 15 0  0 15 0  0 15 0  0 15 0  0 15 0  0 15 0  0 15 0  0 15 0  0 15 0  0 15 0  0 15 0  0 15 0  0 
0  0  0 15 0  0 15 0  0 15 0  0 15 0  0 15 0  0 15 0  0 15 0  0 15 0  0 15 0  0 15 0  0 15 0  0 15 0  0 15 0  0 15 0  0 15 0  0 15 0  0 15 0  0 15 0  0 15 0  0 
0  0  0 15 0  0 15 0  0 15 0  0 15 0  0 15 0  0 15 0  0 15 0  0 15 0  0 15 0  0 15 0  0 15 0  0 15 0  0 15 0  0 15 0  0 15 0  0 15 0  0 15 0  0 15 0  0 15 0  0 
0  0  0 0  0  0 15 0  0 15 0  0 15 0  0 15 0  0 15 0  0 15 0  0 15 0  0 15 0  0 15 0  0 15 0  0 15 0  0 15 0  0 15 0  0 15 0  0 15 0  0 15 0  0 15 0  0 0  0  0 
0  0  0 0  0  0 0  0  0 15 0  0 15 0  0 15 0  0 15 0  0 15 0  0 15 0  0 15 0  0 15 0  0 15 0  0 15 0  0 15 0  0 15 0  0 15 0  0 15 0  0 15 0  0 0  0  0 0  0  0 
0  0  0 0  0  0 0  0  0 15 0  0 15 0  0 15 0  0 15 0  0 15 0  0 15 0  0 15 0  0 15 0  0 15 0  0 15 0  0 15 0  0 15 0  0 15 0  0 15 0  0 15 0  0 0  0  0 0  0  0 
0  0  0 0  0  0 0  0  0 0  0  0 0  0  0 15 0  0 15 0  0 15 0  0 15 0  0 15 0  0 15 0  0 15 0  0 15 0  0 15 0  0 15 0  0 15 0  0 0  0  0 0  0  0 0  0  0 0  0  0 
0  0  0 0  0  0 0  0  0 0  0  0 0  0  0 0  0  0 15 0  0 15 0  0 15 0  0 15 0  0 15 0  0 15 0  0 15 0  0 15 0  0 15 0  0 0  0  0 0  0  0 0  0  0 0  0  0 0  0  0 
