P3
3 3
16
0  0  0   0  0  0   0  0  0  
0  0  0   15 3  15  0  0  0  
0  0  0   0  0  0   0  0  0  