P3
50 50
16
15 0  0   15 0  0   15 0  0   15 0  0   15 0  0   15 0  0   15 0  0   15 0  0   15 0  0   15 0  0   15 0  0   15 0  0   15 0  0   15 0  0   15 0  0   15 0  0   15 0  0   15 0  0   0  0  15  0  0  15  0  0  15  0  0  15  0  0  15  0  0  15  0  0  15  0  0  15  0  0  15  0  0  15  0  0  15  0  0  15  0  0  15  15 0  0   15 0  0   15 0  0   15 0  0   15 0  0   15 0  0   15 0  0   15 0  0   15 0  0   15 0  0   15 0  0   15 0  0   15 0  0   15 0  0   15 0  0   15 0  0   15 0  0   15 0  0   15 0  0  
15 0  0   15 0  0   15 0  0   15 0  0   15 0  0   15 0  0   15 0  0   15 0  0   15 0  0   15 0  0   15 0  0   15 0  0   15 0  0   15 0  0   15 0  0   0  0  15  0  0  15  0  0  15  0  0  15  0  0  15  0  0  15  0  0  15  0  0  15  0  0  15  0  0  15  0  0  15  0  0  15  0  0  15  0  0  15  0  0  15  0  0  15  0  0  15  0  0  15  0  0  15  15 0  0   15 0  0   15 0  0   15 0  0   15 0  0   15 0  0   15 0  0   15 0  0   15 0  0   15 0  0   15 0  0   15 0  0   15 0  0   15 0  0   15 0  0   15 0  0  
15 0  0   15 0  0   15 0  0   15 0  0   15 0  0   15 0  0   15 0  0   15 0  0   15 0  0   15 0  0   15 0  0   15 0  0   15 0  0   0  0  15  0  0  15  0  0  15  0  0  15  0  0  15  0  0  15  0  0  15  0  0  15  0  0  15  0  0  15  0  0  15  0  0  15  0  0  15  0  0  15  0  0  15  0  0  15  0  0  15  0  0  15  0  0  15  0  0  15  0  0  15  0  0  15  0  0  15  15 0  0   15 0  0   15 0  0   15 0  0   15 0  0   15 0  0   15 0  0   15 0  0   15 0  0   15 0  0   15 0  0   15 0  0   15 0  0   15 0  0  
15 0  0   15 0  0   15 0  0   15 0  0   15 0  0   15 0  0   15 0  0   15 0  0   15 0  0   15 0  0   15 0  0   0  0  15  0  0  15  0  0  15  0  0  15  0  0  15  0  0  15  0  0  15  0  0  15  0  0  15  0  0  15  0  0  15  0  0  15  0  0  15  0  0  15  0  0  15  0  0  15  0  0  15  0  0  15  0  0  15  0  0  15  0  0  15  0  0  15  0  0  15  0  0  15  0  0  15  0  0  15  0  0  15  15 0  0   15 0  0   15 0  0   15 0  0   15 0  0   15 0  0   15 0  0   15 0  0   15 0  0   15 0  0   15 0  0   15 0  0  
15 0  0   15 0  0   15 0  0   15 0  0   15 0  0   15 0  0   15 0  0   15 0  0   15 0  0   15 0  0   0  0  15  0  0  15  0  0  15  0  0  15  0  0  15  0  0  15  0  0  15  0  0  15  0  0  15  0  0  15  0  0  15  0  0  15  0  0  15  0  0  15  0  0  15  0  0  15  0  0  15  0  0  15  0  0  15  0  0  15  0  0  15  0  0  15  0  0  15  0  0  15  0  0  15  0  0  15  0  0  15  0  0  15  0  0  15  15 0  0   15 0  0   15 0  0   15 0  0   15 0  0   15 0  0   15 0  0   15 0  0   15 0  0   15 0  0   15 0  0  
15 0  0   15 0  0   15 0  0   15 0  0   15 0  0   15 0  0   15 0  0   15 0  0   0  0  15  0  0  15  0  0  15  0  0  15  0  0  15  0  0  15  0  0  15  0  0  15  0  0  15  0  0  15  0  0  15  0  0  15  0  0  15  0  0  15  0  0  15  0  0  15  0  0  15  0  0  15  0  0  15  0  0  15  0  0  15  0  0  15  0  0  15  0  0  15  0  0  15  0  0  15  0  0  15  0  0  15  0  0  15  0  0  15  0  0  15  0  0  15  0  0  15  15 0  0   15 0  0   15 0  0   15 0  0   15 0  0   15 0  0   15 0  0   15 0  0   15 0  0  
15 0  0   15 0  0   15 0  0   15 0  0   15 0  0   15 0  0   15 0  0   0  0  15  0  0  15  0  0  15  0  0  15  0  0  15  0  0  15  0  0  15  0  0  15  0  0  15  0  0  15  0  0  15  0  0  15  0  0  15  0  0  15  0  0  15  0  0  15  0  0  15  0  0  15  0  0  15  0  0  15  0  0  15  0  0  15  0  0  15  0  0  15  0  0  15  0  0  15  0  0  15  0  0  15  0  0  15  0  0  15  0  0  15  0  0  15  0  0  15  0  0  15  0  0  15  15 0  0   15 0  0   15 0  0   15 0  0   15 0  0   15 0  0   15 0  0   15 0  0  
15 0  0   15 0  0   15 0  0   15 0  0   15 0  0   15 0  0   0  0  15  0  0  15  0  0  15  0  0  15  0  0  15  0  0  15  0  0  15  0  0  15  0  0  15  0  0  15  0  0  15  0  0  15  0  0  15  0  0  15  0  0  15  0  0  15  0  0  15  0  0  15  0  0  15  0  0  15  0  0  15  0  0  15  0  0  15  0  0  15  0  0  15  0  0  15  0  0  15  0  0  15  0  0  15  0  0  15  0  0  15  0  0  15  0  0  15  0  0  15  0  0  15  0  0  15  0  0  15  15 0  0   15 0  0   15 0  0   15 0  0   15 0  0   15 0  0   15 0  0  
15 0  0   15 0  0   15 0  0   15 0  0   15 0  0   0  0  15  0  0  15  0  0  15  0  0  15  0  0  15  0  0  15  0  0  15  0  0  15  0  0  15  0  0  15  0  0  15  0  0  15  0  0  15  0  0  15  0  0  15  0  0  15  0  0  15  0  0  15  0  0  15  0  0  15  0  0  15  0  0  15  0  0  15  0  0  15  0  0  15  0  0  15  0  0  15  0  0  15  0  0  15  0  0  15  0  0  15  0  0  15  0  0  15  0  0  15  0  0  15  0  0  15  0  0  15  0  0  15  0  0  15  15 0  0   15 0  0   15 0  0   15 0  0   15 0  0   15 0  0  
15 0  0   15 0  0   15 0  0   15 0  0   15 0  0   0  0  15  0  0  15  0  0  15  0  0  15  0  0  15  0  0  15  0  0  15  0  0  15  0  0  15  0  0  15  0  0  15  0  0  15  0  0  15  0  0  15  0  0  15  0  0  15  0  0  15  0  0  15  0  0  15  0  0  15  0  0  15  0  0  15  0  0  15  0  0  15  0  0  15  0  0  15  0  0  15  0  0  15  0  0  15  0  0  15  0  0  15  0  0  15  0  0  15  0  0  15  0  0  15  0  0  15  0  0  15  0  0  15  0  0  15  15 0  0   15 0  0   15 0  0   15 0  0   15 0  0   15 0  0  
15 0  0   15 0  0   15 0  0   15 0  0   0  0  15  0  0  15  0  0  15  0  0  15  0  0  15  0  0  15  0  0  15  0  0  15  0  0  15  0  0  15  0  0  15  0  0  15  0  0  15  0  0  15  0  0  15  0  0  15  0  0  15  0  0  15  0  0  15  0  0  15  0  0  15  0  0  15  0  0  15  0  0  15  0  0  15  0  0  15  0  0  15  0  0  15  0  0  15  0  0  15  0  0  15  0  0  15  0  0  15  0  0  15  0  0  15  0  0  15  0  0  15  0  0  15  0  0  15  0  0  15  0  0  15  15 0  0   15 0  0   15 0  0   15 0  0   15 0  0  
15 0  0   15 0  0   15 0  0   0  0  15  0  0  15  0  0  15  0  0  15  0  0  15  0  0  15  0  0  15  0  0  15  0  0  15  0  0  15  0  0  15  0  0  15  0  0  15  0  0  15  0  0  15  0  0  15  0  0  15  0  0  15  0  0  15  0  0  15  0  0  15  0  0  15  0  0  15  0  0  15  0  0  15  0  0  15  0  0  15  0  0  15  0  0  15  0  0  15  0  0  15  0  0  15  0  0  15  0  0  15  0  0  15  0  0  15  0  0  15  0  0  15  0  0  15  0  0  15  0  0  15  0  0  15  0  0  15  15 0  0   15 0  0   15 0  0   15 0  0  
15 0  0   15 0  0   15 0  0   0  0  15  0  0  15  0  0  15  0  0  15  0  0  15  0  0  15  0  0  15  0  0  15  0  0  15  0  0  15  0  0  15  0  0  15  0  0  15  0  0  15  0  0  15  0  0  15  0  0  15  0  0  15  0  0  15  0  0  15  0  0  15  0  0  15  0  0  15  0  0  15  0  0  15  0  0  15  0  0  15  0  0  15  0  0  15  0  0  15  0  0  15  0  0  15  0  0  15  0  0  15  0  0  15  0  0  15  0  0  15  0  0  15  0  0  15  0  0  15  0  0  15  0  0  15  0  0  15  15 0  0   15 0  0   15 0  0   15 0  0  
15 0  0   15 0  0   0  0  15  0  0  15  0  0  15  0  0  15  0  0  15  0  0  15  0  0  15  0  0  15  0  0  15  0  0  15  0  0  15  0  0  15  0  0  15  0  0  15  0  0  15  0  0  15  0  0  15  0  0  15  0  0  15  0  0  15  0  0  15  0  0  15  0  0  15  0  0  15  0  0  15  0  0  15  0  0  15  0  0  15  0  0  15  0  0  15  0  0  15  0  0  15  0  0  15  0  0  15  0  0  15  0  0  15  0  0  15  0  0  15  0  0  15  0  0  15  0  0  15  0  0  15  0  0  15  0  0  15  0  0  15  15 0  0   15 0  0   15 0  0  
15 0  0   15 0  0   0  0  15  0  0  15  0  0  15  0  0  15  0  0  15  0  0  15  0  0  15  0  0  15  0  0  15  0  0  15  0  0  15  0  0  15  0  0  15  0  0  15  0  0  15  0  0  15  0  0  15  0  0  15  0  0  15  0  0  15  0  0  15  0  0  15  0  0  15  0  0  15  0  0  15  0  0  15  0  0  15  0  0  15  0  0  15  0  0  15  0  0  15  0  0  15  0  0  15  0  0  15  0  0  15  0  0  15  0  0  15  0  0  15  0  0  15  0  0  15  0  0  15  0  0  15  0  0  15  0  0  15  0  0  15  15 0  0   15 0  0   15 0  0  
15 0  0   0  0  15  0  0  15  0  0  15  0  0  15  0  0  15  0  0  15  0  0  15  0  0  15  0  0  15  0  0  15  0  0  15  0  0  15  0  0  15  0  0  15  0  0  15  0  0  15  0  0  15  0  0  15  0  0  15  0  0  15  0  0  15  0  0  15  0  0  15  0  0  15  0  0  15  0  0  15  0  0  15  0  0  15  0  0  15  0  0  15  0  0  15  0  0  15  0  0  15  0  0  15  0  0  15  0  0  15  0  0  15  0  0  15  0  0  15  0  0  15  0  0  15  0  0  15  0  0  15  0  0  15  0  0  15  0  0  15  0  0  15  15 0  0   15 0  0  
15 0  0   0  0  15  0  0  15  0  0  15  0  0  15  0  0  15  0  0  15  0  0  15  0  0  15  0  0  15  0  0  15  0  0  15  0  0  15  0  0  15  0  0  15  0  0  15  0  0  15  0  0  15  0  0  15  0  0  15  0  0  15  0  0  15  0  0  15  0  0  15  0  0  15  0  0  15  0  0  15  0  0  15  0  0  15  0  0  15  0  0  15  0  0  15  0  0  15  0  0  15  0  0  15  0  0  15  0  0  15  0  0  15  0  0  15  0  0  15  0  0  15  0  0  15  0  0  15  0  0  15  0  0  15  0  0  15  0  0  15  0  0  15  15 0  0   15 0  0  
15 0  0   0  0  15  0  0  15  0  0  15  0  0  15  0  0  15  0  0  15  0  0  15  0  0  15  0  0  15  0  0  15  0  0  15  0  0  15  0  0  15  0  0  15  0  0  15  0  0  15  0  0  15  0  0  15  0  0  15  0  0  15  0  0  15  0  0  15  0  0  15  0  0  15  0  0  15  0  0  15  0  0  15  0  0  15  0  0  15  0  0  15  0  0  15  0  0  15  0  0  15  0  0  15  0  0  15  0  0  15  0  0  15  0  0  15  0  0  15  0  0  15  0  0  15  0  0  15  0  0  15  0  0  15  0  0  15  0  0  15  0  0  15  15 0  0   15 0  0  
0  0  15  0  0  15  0  0  15  0  0  15  0  0  15  0  0  15  0  0  15  0  0  15  0  0  15  0  0  15  0  0  15  0  0  15  0  0  15  0  0  15  0  0  15  0  0  15  0  0  15  0  0  15  0  0  15  0  0  15  0  0  15  0  0  15  0  0  15  0  0  15  0  0  15  0  0  15  0  0  15  0  0  15  0  0  15  0  0  15  0  0  15  0  0  15  0  0  15  0  0  15  0  0  15  0  0  15  0  0  15  0  0  15  0  0  15  0  0  15  0  0  15  0  0  15  0  0  15  0  0  15  0  0  15  0  0  15  0  0  15  0  0  15  0  0  15  15 0  0  
0  0  15  0  0  15  0  0  15  0  0  15  0  0  15  0  0  15  0  0  15  0  0  15  0  0  15  0  0  15  0  0  15  0  0  15  0  0  15  0  0  15  0  0  15  0  0  15  0  0  15  0  0  15  0  0  15  0  0  15  0  0  15  0  0  15  0  0  15  0  0  15  0  0  15  0  0  15  0  0  15  0  0  15  0  0  15  0  0  15  0  0  15  0  0  15  0  0  15  0  0  15  0  0  15  0  0  15  0  0  15  0  0  15  0  0  15  0  0  15  0  0  15  0  0  15  0  0  15  0  0  15  0  0  15  0  0  15  0  0  15  0  0  15  0  0  15  15 0  0  
0  0  15  0  0  15  0  0  15  0  0  15  0  0  15  0  0  15  0  0  15  0  0  15  0  0  15  0  0  15  0  0  15  0  0  15  0  0  15  0  0  15  0  0  15  0  0  15  0  0  15  0  0  15  0  0  15  0  0  15  0  0  15  0  0  15  0  0  15  0  0  15  0  0  15  0  0  15  0  0  15  0  0  15  0  0  15  0  0  15  0  0  15  0  0  15  0  0  15  0  0  15  0  0  15  0  0  15  0  0  15  0  0  15  0  0  15  0  0  15  0  0  15  0  0  15  0  0  15  0  0  15  0  0  15  0  0  15  0  0  15  0  0  15  0  0  15  15 0  0  
0  0  15  0  0  15  0  0  15  0  0  15  0  0  15  0  0  15  0  0  15  0  0  15  0  0  15  0  0  15  0  0  15  0  0  15  0  0  15  0  0  15  0  0  15  0  0  15  0  0  15  0  0  15  0  0  15  0  0  15  0  0  15  0  0  15  0  0  15  0  0  15  0  0  15  0  0  15  0  0  15  0  0  15  0  0  15  0  0  15  0  0  15  0  0  15  0  0  15  0  0  15  0  0  15  0  0  15  0  0  15  0  0  15  0  0  15  0  0  15  0  0  15  0  0  15  0  0  15  0  0  15  0  0  15  0  0  15  0  0  15  0  0  15  0  0  15  15 0  0  
0  0  15  0  0  15  0  0  15  0  0  15  0  0  15  0  0  15  0  0  15  0  0  15  0  0  15  0  0  15  0  0  15  0  0  15  0  0  15  0  0  15  0  0  15  0  0  15  0  0  15  0  0  15  0  0  15  0  0  15  0  0  15  0  0  15  0  0  15  0  0  15  0  0  15  0  0  15  0  0  15  0  0  15  0  0  15  0  0  15  0  0  15  0  0  15  0  0  15  0  0  15  0  0  15  0  0  15  0  0  15  0  0  15  0  0  15  0  0  15  0  0  15  0  0  15  0  0  15  0  0  15  0  0  15  0  0  15  0  0  15  0  0  15  0  0  15  15 0  0  
0  0  15  0  0  15  0  0  15  0  0  15  0  0  15  0  0  15  0  0  15  0  0  15  0  0  15  0  0  15  0  0  15  0  0  15  0  0  15  0  0  15  0  0  15  0  0  15  0  0  15  0  0  15  0  0  15  0  0  15  0  0  15  0  0  15  0  0  15  0  0  15  0  0  15  0  0  15  0  0  15  0  0  15  0  0  15  0  0  15  0  0  15  0  0  15  0  0  15  0  0  15  0  0  15  0  0  15  0  0  15  0  0  15  0  0  15  0  0  15  0  0  15  0  0  15  0  0  15  0  0  15  0  0  15  0  0  15  0  0  15  0  0  15  0  0  15  15 0  0  
0  0  15  0  0  15  0  0  15  0  0  15  0  0  15  0  0  15  0  0  15  0  0  15  0  0  15  0  0  15  0  0  15  0  0  15  0  0  15  0  0  15  0  0  15  0  0  15  0  0  15  0  0  15  0  0  15  0  0  15  0  0  15  0  0  15  0  0  15  0  0  15  0  0  15  0  0  15  0  0  15  0  0  15  0  0  15  0  0  15  0  0  15  0  0  15  0  0  15  0  0  15  0  0  15  0  0  15  0  0  15  0  0  15  0  0  15  0  0  15  0  0  15  0  0  15  0  0  15  0  0  15  0  0  15  0  0  15  0  0  15  0  0  15  0  0  15  15 0  0  
0  0  15  0  0  15  0  0  15  0  0  15  0  0  15  0  0  15  0  0  15  0  0  15  0  0  15  0  0  15  0  0  15  0  0  15  0  0  15  0  0  15  0  0  15  0  0  15  0  0  15  0  0  15  0  0  15  0  0  15  0  0  15  0  0  15  0  0  15  0  0  15  0  0  15  0  0  15  0  0  15  0  0  15  0  0  15  0  0  15  0  0  15  0  0  15  0  0  15  0  0  15  0  0  15  0  0  15  0  0  15  0  0  15  0  0  15  0  0  15  0  0  15  0  0  15  0  0  15  0  0  15  0  0  15  0  0  15  0  0  15  0  0  15  0  0  15  15 0  0  
0  0  15  0  0  15  0  0  15  0  0  15  0  0  15  0  0  15  0  0  15  0  0  15  0  0  15  0  0  15  0  0  15  0  0  15  0  0  15  0  0  15  0  0  15  0  0  15  0  0  15  0  0  15  0  0  15  0  0  15  0  0  15  0  0  15  0  0  15  0  0  15  0  0  15  0  0  15  0  0  15  0  0  15  0  0  15  0  0  15  0  0  15  0  0  15  0  0  15  0  0  15  0  0  15  0  0  15  0  0  15  0  0  15  0  0  15  0  0  15  0  0  15  0  0  15  0  0  15  0  0  15  0  0  15  0  0  15  0  0  15  0  0  15  0  0  15  15 0  0  
0  0  15  0  0  15  0  0  15  0  0  15  0  0  15  0  0  15  0  0  15  0  0  15  0  0  15  0  0  15  0  0  15  0  0  15  0  0  15  0  0  15  0  0  15  0  0  15  0  0  15  0  0  15  0  0  15  0  0  15  0  0  15  0  0  15  0  0  15  0  0  15  0  0  15  0  0  15  0  0  15  0  0  15  0  0  15  0  0  15  0  0  15  0  0  15  0  0  15  0  0  15  0  0  15  0  0  15  0  0  15  0  0  15  0  0  15  0  0  15  0  0  15  0  0  15  0  0  15  0  0  15  0  0  15  0  0  15  0  0  15  0  0  15  0  0  15  15 0  0  
0  0  15  0  0  15  0  0  15  0  0  15  0  0  15  0  0  15  0  0  15  0  0  15  0  0  15  0  0  15  0  0  15  0  0  15  0  0  15  0  0  15  0  0  15  0  0  15  0  0  15  0  0  15  0  0  15  0  0  15  0  0  15  0  0  15  0  0  15  0  0  15  0  0  15  0  0  15  0  0  15  0  0  15  0  0  15  0  0  15  0  0  15  0  0  15  0  0  15  0  0  15  0  0  15  0  0  15  0  0  15  0  0  15  0  0  15  0  0  15  0  0  15  0  0  15  0  0  15  0  0  15  0  0  15  0  0  15  0  0  15  0  0  15  0  0  15  15 0  0  
0  0  15  0  0  15  0  0  15  0  0  15  0  0  15  0  0  15  0  0  15  0  0  15  0  0  15  0  0  15  0  0  15  0  0  15  0  0  15  0  0  15  0  0  15  0  0  15  0  0  15  0  0  15  0  0  15  0  0  15  0  0  15  0  0  15  0  0  15  0  0  15  0  0  15  0  0  15  0  0  15  0  0  15  0  0  15  0  0  15  0  0  15  0  0  15  0  0  15  0  0  15  0  0  15  0  0  15  0  0  15  0  0  15  0  0  15  0  0  15  0  0  15  0  0  15  0  0  15  0  0  15  0  0  15  0  0  15  0  0  15  0  0  15  0  0  15  15 0  0  
0  0  15  0  0  15  0  0  15  0  0  15  0  0  15  0  0  15  0  0  15  0  0  15  0  0  15  0  0  15  0  0  15  0  0  15  0  0  15  0  0  15  0  0  15  0  0  15  0  0  15  0  0  15  0  0  15  0  0  15  0  0  15  0  0  15  0  0  15  0  0  15  0  0  15  0  0  15  0  0  15  0  0  15  0  0  15  0  0  15  0  0  15  0  0  15  0  0  15  0  0  15  0  0  15  0  0  15  0  0  15  0  0  15  0  0  15  0  0  15  0  0  15  0  0  15  0  0  15  0  0  15  0  0  15  0  0  15  0  0  15  0  0  15  0  0  15  15 0  0  
15 0  0   0  0  15  0  0  15  0  0  15  0  0  15  0  0  15  0  0  15  0  0  15  0  0  15  0  0  15  0  0  15  0  0  15  0  0  15  0  0  15  0  0  15  0  0  15  0  0  15  0  0  15  0  0  15  0  0  15  0  0  15  0  0  15  0  0  15  0  0  15  0  0  15  0  0  15  0  0  15  0  0  15  0  0  15  0  0  15  0  0  15  0  0  15  0  0  15  0  0  15  0  0  15  0  0  15  0  0  15  0  0  15  0  0  15  0  0  15  0  0  15  0  0  15  0  0  15  0  0  15  0  0  15  0  0  15  0  0  15  0  0  15  15 0  0   15 0  0  
15 0  0   0  0  15  0  0  15  0  0  15  0  0  15  0  0  15  0  0  15  0  0  15  0  0  15  0  0  15  0  0  15  0  0  15  0  0  15  0  0  15  0  0  15  0  0  15  0  0  15  0  0  15  0  0  15  0  0  15  0  0  15  0  0  15  0  0  15  0  0  15  0  0  15  0  0  15  0  0  15  0  0  15  0  0  15  0  0  15  0  0  15  0  0  15  0  0  15  0  0  15  0  0  15  0  0  15  0  0  15  0  0  15  0  0  15  0  0  15  0  0  15  0  0  15  0  0  15  0  0  15  0  0  15  0  0  15  0  0  15  0  0  15  15 0  0   15 0  0  
15 0  0   0  0  15  0  0  15  0  0  15  0  0  15  0  0  15  0  0  15  0  0  15  0  0  15  0  0  15  0  0  15  0  0  15  0  0  15  0  0  15  0  0  15  0  0  15  0  0  15  0  0  15  0  0  15  0  0  15  0  0  15  0  0  15  0  0  15  0  0  15  0  0  15  0  0  15  0  0  15  0  0  15  0  0  15  0  0  15  0  0  15  0  0  15  0  0  15  0  0  15  0  0  15  0  0  15  0  0  15  0  0  15  0  0  15  0  0  15  0  0  15  0  0  15  0  0  15  0  0  15  0  0  15  0  0  15  0  0  15  0  0  15  15 0  0   15 0  0  
15 0  0   15 0  0   0  0  15  0  0  15  0  0  15  0  0  15  0  0  15  0  0  15  0  0  15  0  0  15  0  0  15  0  0  15  0  0  15  0  0  15  0  0  15  0  0  15  0  0  15  0  0  15  0  0  15  0  0  15  0  0  15  0  0  15  0  0  15  0  0  15  0  0  15  0  0  15  0  0  15  0  0  15  0  0  15  0  0  15  0  0  15  0  0  15  0  0  15  0  0  15  0  0  15  0  0  15  0  0  15  0  0  15  0  0  15  0  0  15  0  0  15  0  0  15  0  0  15  0  0  15  0  0  15  0  0  15  0  0  15  15 0  0   15 0  0   15 0  0  
15 0  0   15 0  0   0  0  15  0  0  15  0  0  15  0  0  15  0  0  15  0  0  15  0  0  15  0  0  15  0  0  15  0  0  15  0  0  15  0  0  15  0  0  15  0  0  15  0  0  15  0  0  15  0  0  15  0  0  15  0  0  15  0  0  15  0  0  15  0  0  15  0  0  15  0  0  15  0  0  15  0  0  15  0  0  15  0  0  15  0  0  15  0  0  15  0  0  15  0  0  15  0  0  15  0  0  15  0  0  15  0  0  15  0  0  15  0  0  15  0  0  15  0  0  15  0  0  15  0  0  15  0  0  15  0  0  15  0  0  15  15 0  0   15 0  0   15 0  0  
15 0  0   15 0  0   15 0  0   0  0  15  0  0  15  0  0  15  0  0  15  0  0  15  0  0  15  0  0  15  0  0  15  0  0  15  0  0  15  0  0  15  0  0  15  0  0  15  0  0  15  0  0  15  0  0  15  0  0  15  0  0  15  0  0  15  0  0  15  0  0  15  0  0  15  0  0  15  0  0  15  0  0  15  0  0  15  0  0  15  0  0  15  0  0  15  0  0  15  0  0  15  0  0  15  0  0  15  0  0  15  0  0  15  0  0  15  0  0  15  0  0  15  0  0  15  0  0  15  0  0  15  0  0  15  0  0  15  15 0  0   15 0  0   15 0  0   15 0  0  
15 0  0   15 0  0   15 0  0   0  0  15  0  0  15  0  0  15  0  0  15  0  0  15  0  0  15  0  0  15  0  0  15  0  0  15  0  0  15  0  0  15  0  0  15  0  0  15  0  0  15  0  0  15  0  0  15  0  0  15  0  0  15  0  0  15  0  0  15  0  0  15  0  0  15  0  0  15  0  0  15  0  0  15  0  0  15  0  0  15  0  0  15  0  0  15  0  0  15  0  0  15  0  0  15  0  0  15  0  0  15  0  0  15  0  0  15  0  0  15  0  0  15  0  0  15  0  0  15  0  0  15  0  0  15  0  0  15  15 0  0   15 0  0   15 0  0   15 0  0  
15 0  0   15 0  0   15 0  0   15 0  0   0  0  15  0  0  15  0  0  15  0  0  15  0  0  15  0  0  15  0  0  15  0  0  15  0  0  15  0  0  15  0  0  15  0  0  15  0  0  15  0  0  15  0  0  15  0  0  15  0  0  15  0  0  15  0  0  15  0  0  15  0  0  15  0  0  15  0  0  15  0  0  15  0  0  15  0  0  15  0  0  15  0  0  15  0  0  15  0  0  15  0  0  15  0  0  15  0  0  15  0  0  15  0  0  15  0  0  15  0  0  15  0  0  15  0  0  15  0  0  15  0  0  15  15 0  0   15 0  0   15 0  0   15 0  0   15 0  0  
15 0  0   15 0  0   15 0  0   15 0  0   15 0  0   0  0  15  0  0  15  0  0  15  0  0  15  0  0  15  0  0  15  0  0  15  0  0  15  0  0  15  0  0  15  0  0  15  0  0  15  0  0  15  0  0  15  0  0  15  0  0  15  0  0  15  0  0  15  0  0  15  0  0  15  0  0  15  0  0  15  0  0  15  0  0  15  0  0  15  0  0  15  0  0  15  0  0  15  0  0  15  0  0  15  0  0  15  0  0  15  0  0  15  0  0  15  0  0  15  0  0  15  0  0  15  0  0  15  0  0  15  15 0  0   15 0  0   15 0  0   15 0  0   15 0  0   15 0  0  
15 0  0   15 0  0   15 0  0   15 0  0   15 0  0   0  0  15  0  0  15  0  0  15  0  0  15  0  0  15  0  0  15  0  0  15  0  0  15  0  0  15  0  0  15  0  0  15  0  0  15  0  0  15  0  0  15  0  0  15  0  0  15  0  0  15  0  0  15  0  0  15  0  0  15  0  0  15  0  0  15  0  0  15  0  0  15  0  0  15  0  0  15  0  0  15  0  0  15  0  0  15  0  0  15  0  0  15  0  0  15  0  0  15  0  0  15  0  0  15  0  0  15  0  0  15  0  0  15  0  0  15  15 0  0   15 0  0   15 0  0   15 0  0   15 0  0   15 0  0  
15 0  0   15 0  0   15 0  0   15 0  0   15 0  0   15 0  0   0  0  15  0  0  15  0  0  15  0  0  15  0  0  15  0  0  15  0  0  15  0  0  15  0  0  15  0  0  15  0  0  15  0  0  15  0  0  15  0  0  15  0  0  15  0  0  15  0  0  15  0  0  15  0  0  15  0  0  15  0  0  15  0  0  15  0  0  15  0  0  15  0  0  15  0  0  15  0  0  15  0  0  15  0  0  15  0  0  15  0  0  15  0  0  15  0  0  15  0  0  15  0  0  15  0  0  15  0  0  15  15 0  0   15 0  0   15 0  0   15 0  0   15 0  0   15 0  0   15 0  0  
15 0  0   15 0  0   15 0  0   15 0  0   15 0  0   15 0  0   15 0  0   0  0  15  0  0  15  0  0  15  0  0  15  0  0  15  0  0  15  0  0  15  0  0  15  0  0  15  0  0  15  0  0  15  0  0  15  0  0  15  0  0  15  0  0  15  0  0  15  0  0  15  0  0  15  0  0  15  0  0  15  0  0  15  0  0  15  0  0  15  0  0  15  0  0  15  0  0  15  0  0  15  0  0  15  0  0  15  0  0  15  0  0  15  0  0  15  0  0  15  0  0  15  0  0  15  15 0  0   15 0  0   15 0  0   15 0  0   15 0  0   15 0  0   15 0  0   15 0  0  
15 0  0   15 0  0   15 0  0   15 0  0   15 0  0   15 0  0   15 0  0   15 0  0   0  0  15  0  0  15  0  0  15  0  0  15  0  0  15  0  0  15  0  0  15  0  0  15  0  0  15  0  0  15  0  0  15  0  0  15  0  0  15  0  0  15  0  0  15  0  0  15  0  0  15  0  0  15  0  0  15  0  0  15  0  0  15  0  0  15  0  0  15  0  0  15  0  0  15  0  0  15  0  0  15  0  0  15  0  0  15  0  0  15  0  0  15  0  0  15  0  0  15  15 0  0   15 0  0   15 0  0   15 0  0   15 0  0   15 0  0   15 0  0   15 0  0   15 0  0  
15 0  0   15 0  0   15 0  0   15 0  0   15 0  0   15 0  0   15 0  0   15 0  0   15 0  0   15 0  0   0  0  15  0  0  15  0  0  15  0  0  15  0  0  15  0  0  15  0  0  15  0  0  15  0  0  15  0  0  15  0  0  15  0  0  15  0  0  15  0  0  15  0  0  15  0  0  15  0  0  15  0  0  15  0  0  15  0  0  15  0  0  15  0  0  15  0  0  15  0  0  15  0  0  15  0  0  15  0  0  15  0  0  15  0  0  15  15 0  0   15 0  0   15 0  0   15 0  0   15 0  0   15 0  0   15 0  0   15 0  0   15 0  0   15 0  0   15 0  0  
15 0  0   15 0  0   15 0  0   15 0  0   15 0  0   15 0  0   15 0  0   15 0  0   15 0  0   15 0  0   15 0  0   0  0  15  0  0  15  0  0  15  0  0  15  0  0  15  0  0  15  0  0  15  0  0  15  0  0  15  0  0  15  0  0  15  0  0  15  0  0  15  0  0  15  0  0  15  0  0  15  0  0  15  0  0  15  0  0  15  0  0  15  0  0  15  0  0  15  0  0  15  0  0  15  0  0  15  0  0  15  0  0  15  15 0  0   15 0  0   15 0  0   15 0  0   15 0  0   15 0  0   15 0  0   15 0  0   15 0  0   15 0  0   15 0  0   15 0  0  
15 0  0   15 0  0   15 0  0   15 0  0   15 0  0   15 0  0   15 0  0   15 0  0   15 0  0   15 0  0   15 0  0   15 0  0   15 0  0   0  0  15  0  0  15  0  0  15  0  0  15  0  0  15  0  0  15  0  0  15  0  0  15  0  0  15  0  0  15  0  0  15  0  0  15  0  0  15  0  0  15  0  0  15  0  0  15  0  0  15  0  0  15  0  0  15  0  0  15  0  0  15  0  0  15  0  0  15  15 0  0   15 0  0   15 0  0   15 0  0   15 0  0   15 0  0   15 0  0   15 0  0   15 0  0   15 0  0   15 0  0   15 0  0   15 0  0   15 0  0  
15 0  0   15 0  0   15 0  0   15 0  0   15 0  0   15 0  0   15 0  0   15 0  0   15 0  0   15 0  0   15 0  0   15 0  0   15 0  0   15 0  0   15 0  0   0  0  15  0  0  15  0  0  15  0  0  15  0  0  15  0  0  15  0  0  15  0  0  15  0  0  15  0  0  15  0  0  15  0  0  15  0  0  15  0  0  15  0  0  15  0  0  15  0  0  15  0  0  15  0  0  15  15 0  0   15 0  0   15 0  0   15 0  0   15 0  0   15 0  0   15 0  0   15 0  0   15 0  0   15 0  0   15 0  0   15 0  0   15 0  0   15 0  0   15 0  0   15 0  0  
15 0  0   15 0  0   15 0  0   15 0  0   15 0  0   15 0  0   15 0  0   15 0  0   15 0  0   15 0  0   15 0  0   15 0  0   15 0  0   15 0  0   15 0  0   15 0  0   15 0  0   15 0  0   0  0  15  0  0  15  0  0  15  0  0  15  0  0  15  0  0  15  0  0  15  0  0  15  0  0  15  0  0  15  0  0  15  0  0  15  0  0  15  15 0  0   15 0  0   15 0  0   15 0  0   15 0  0   15 0  0   15 0  0   15 0  0   15 0  0   15 0  0   15 0  0   15 0  0   15 0  0   15 0  0   15 0  0   15 0  0   15 0  0   15 0  0   15 0  0  
15 0  0   15 0  0   15 0  0   15 0  0   15 0  0   15 0  0   15 0  0   15 0  0   15 0  0   15 0  0   15 0  0   15 0  0   15 0  0   15 0  0   15 0  0   15 0  0   15 0  0   15 0  0   15 0  0   15 0  0   15 0  0   15 0  0   15 0  0   15 0  0   15 0  0   15 0  0   15 0  0   15 0  0   15 0  0   15 0  0   15 0  0   15 0  0   15 0  0   15 0  0   15 0  0   15 0  0   15 0  0   15 0  0   15 0  0   15 0  0   15 0  0   15 0  0   15 0  0   15 0  0   15 0  0   15 0  0   15 0  0   15 0  0   15 0  0   15 0  0  