P3
2 2
16
0  0  0   15 15 15
15 15 15  0  0  0
