P3
12 5
16
0  0  15  0  0  15  0  0  15  0  0  15  0  0  15  0  0  15  0  0  15  0  0  15  0  0  15  0  0  15  0  0  15  0  0  15 
0  0  15  15 0  0   15 0  0   15 0  0   15 0  0   15 0  0   15 0  0   15 0  0   15 0  0   15 0  0   15 0  0   0  0  15 
0  0  15  15 0  0   15 0  0   15 0  0   15 0  0   15 0  0   15 0  0   15 0  0   15 0  0   15 0  0   15 0  0   0  0  15 
0  0  15  15 0  0   15 0  0   15 0  0   15 0  0   15 0  0   15 0  0   15 0  0   15 0  0   15 0  0   15 0  0   0  0  15 
0  0  15  0  0  15  0  0  15  0  0  15  0  0  15  0  0  15  0  0  15  0  0  15  0  0  15  0  0  15  0  0  15  0  0  15 